<?xml version="1.0" standalone="yes"?>

<svg version="1.1" viewBox="0.0 0.0 1383.0 373.0" fill="none" stroke="none" stroke-linecap="square" stroke-miterlimit="10" xmlns="http://www.w3.org/2000/svg" xmlns:xlink="http://www.w3.org/1999/xlink"><clipPath id="p.0"><path d="m0 0l1383.0 0l0 373.0l-1383.0 0l0 -373.0z" clip-rule="nonzero"></path></clipPath><g clip-path="url(#p.0)"><path fill="#000000" fill-opacity="0.0" d="m0 0l1383.3097 0l0 373.1916l-1383.3097 0z" fill-rule="nonzero"></path><path fill="#cfe2f3" d="m73.480316 69.874016l32.53543 0l0 53.385826l-32.53543 0z" fill-rule="nonzero"></path><path stroke="#3d85c6" stroke-width="2.0" stroke-linejoin="round" stroke-linecap="butt" d="m73.480316 69.874016l32.53543 0l0 53.385826l-32.53543 0z" fill-rule="nonzero"></path><path fill="#000000" d="m91.46469 100.00255l-5.65625 0l-1.28125 3.484375l-1.859375 0l5.21875 -13.515625l1.578125 0l5.125 13.515625l-1.859375 0l-1.265625 -3.484375zm-5.09375 -1.53125l4.546875 0l-2.21875 -6.140625l-0.0625 0l-2.265625 6.140625z" fill-rule="nonzero"></path><path fill="#cfe2f3" d="m106.01575 69.874016l32.53543 0l0 53.385826l-32.53543 0z" fill-rule="nonzero"></path><path stroke="#3d85c6" stroke-width="2.0" stroke-linejoin="round" stroke-linecap="butt" d="m106.01575 69.874016l32.53543 0l0 53.385826l-32.53543 0z" fill-rule="nonzero"></path><path fill="#000000" d="m124.00012 100.00255l-5.65625 0l-1.28125 3.484375l-1.859375 0l5.21875 -13.515625l1.578125 0l5.125 13.515625l-1.859375 0l-1.265625 -3.484375zm-5.09375 -1.53125l4.546875 0l-2.21875 -6.140625l-0.0625 0l-2.265625 6.140625z" fill-rule="nonzero"></path><path fill="#cfe2f3" d="m138.55118 69.874016l32.53543 0l0 53.385826l-32.53543 0z" fill-rule="nonzero"></path><path stroke="#3d85c6" stroke-width="2.0" stroke-linejoin="round" stroke-linecap="butt" d="m138.55118 69.874016l32.53543 0l0 53.385826l-32.53543 0z" fill-rule="nonzero"></path><path fill="#000000" d="m156.53555 100.00255l-5.65625 0l-1.28125 3.484375l-1.859375 0l5.21875 -13.515625l1.578125 0l5.125 13.515625l-1.859375 0l-1.265625 -3.484375zm-5.09375 -1.53125l4.546875 0l-2.21875 -6.140625l-0.0625 0l-2.265625 6.140625z" fill-rule="nonzero"></path><path fill="#cfe2f3" d="m171.08661 69.874016l32.53543 0l0 53.385826l-32.53543 0z" fill-rule="nonzero"></path><path stroke="#3d85c6" stroke-width="2.0" stroke-linejoin="round" stroke-linecap="butt" d="m171.08661 69.874016l32.53543 0l0 53.385826l-32.53543 0z" fill-rule="nonzero"></path><path fill="#000000" d="m189.07098 100.00255l-5.65625 0l-1.28125 3.484375l-1.859375 0l5.21875 -13.515625l1.578125 0l5.125 13.515625l-1.859375 0l-1.265625 -3.484375zm-5.09375 -1.53125l4.546875 0l-2.21875 -6.140625l-0.0625 0l-2.265625 6.140625z" fill-rule="nonzero"></path><path fill="#cfe2f3" d="m203.62204 69.874016l32.535446 0l0 53.385826l-32.535446 0z" fill-rule="nonzero"></path><path stroke="#3d85c6" stroke-width="2.0" stroke-linejoin="round" stroke-linecap="butt" d="m203.62204 69.874016l32.535446 0l0 53.385826l-32.535446 0z" fill-rule="nonzero"></path><path fill="#000000" d="m221.60641 100.00255l-5.65625 0l-1.28125 3.484375l-1.859375 0l5.21875 -13.515625l1.578125 0l5.125 13.515625l-1.859375 0l-1.265625 -3.484375zm-5.09375 -1.53125l4.546875 0l-2.21875 -6.140625l-0.0625 0l-2.265625 6.140625z" fill-rule="nonzero"></path><path fill="#cfe2f3" d="m236.15749 69.874016l32.535416 0l0 53.385826l-32.535416 0z" fill-rule="nonzero"></path><path stroke="#3d85c6" stroke-width="2.0" stroke-linejoin="round" stroke-linecap="butt" d="m236.15749 69.874016l32.535416 0l0 53.385826l-32.535416 0z" fill-rule="nonzero"></path><path fill="#000000" d="m254.14186 100.00255l-5.65625 0l-1.28125 3.484375l-1.859375 0l5.21875 -13.515625l1.578125 0l5.1249847 13.515625l-1.8593597 0l-1.265625 -3.484375zm-5.09375 -1.53125l4.546875 0l-2.21875 -6.140625l-0.0625 0l-2.265625 6.140625z" fill-rule="nonzero"></path><path fill="#cfe2f3" d="m268.6929 69.874016l32.53543 0l0 53.385826l-32.53543 0z" fill-rule="nonzero"></path><path stroke="#3d85c6" stroke-width="2.0" stroke-linejoin="round" stroke-linecap="butt" d="m268.6929 69.874016l32.53543 0l0 53.385826l-32.53543 0z" fill-rule="nonzero"></path><path fill="#000000" d="m286.67728 100.00255l-5.65625 0l-1.28125 3.484375l-1.859375 0l5.21875 -13.515625l1.578125 0l5.125 13.515625l-1.859375 0l-1.265625 -3.484375zm-5.09375 -1.53125l4.546875 0l-2.21875 -6.140625l-0.0625 0l-2.265625 6.140625z" fill-rule="nonzero"></path><path fill="#cfe2f3" d="m301.22833 69.874016l32.53546 0l0 53.385826l-32.53546 0z" fill-rule="nonzero"></path><path stroke="#3d85c6" stroke-width="2.0" stroke-linejoin="round" stroke-linecap="butt" d="m301.22833 69.874016l32.53546 0l0 53.385826l-32.53546 0z" fill-rule="nonzero"></path><path fill="#000000" d="m319.2127 100.00255l-5.65625 0l-1.28125 3.484375l-1.859375 0l5.21875 -13.515625l1.578125 0l5.125 13.515625l-1.859375 0l-1.265625 -3.484375zm-5.09375 -1.53125l4.546875 0l-2.21875 -6.140625l-0.0625 0l-2.265625 6.140625z" fill-rule="nonzero"></path><path fill="#cfe2f3" d="m333.7638 69.874016l32.53543 0l0 53.385826l-32.53543 0z" fill-rule="nonzero"></path><path stroke="#3d85c6" stroke-width="2.0" stroke-linejoin="round" stroke-linecap="butt" d="m333.7638 69.874016l32.53543 0l0 53.385826l-32.53543 0z" fill-rule="nonzero"></path><path fill="#000000" d="m351.74817 100.00255l-5.65625 0l-1.28125 3.484375l-1.859375 0l5.21875 -13.515625l1.578125 0l5.125 13.515625l-1.859375 0l-1.265625 -3.484375zm-5.09375 -1.53125l4.546875 0l-2.21875 -6.140625l-0.0625 0l-2.265625 6.140625z" fill-rule="nonzero"></path><path fill="#cfe2f3" d="m398.83466 69.874016l32.53543 0l0 53.385826l-32.53543 0z" fill-rule="nonzero"></path><path stroke="#3d85c6" stroke-width="2.0" stroke-linejoin="round" stroke-linecap="butt" d="m398.83466 69.874016l32.53543 0l0 53.385826l-32.53543 0z" fill-rule="nonzero"></path><path fill="#000000" d="m416.81903 100.00255l-5.65625 0l-1.28125 3.484375l-1.859375 0l5.21875 -13.515625l1.578125 0l5.125 13.515625l-1.859375 0l-1.265625 -3.484375zm-5.09375 -1.53125l4.546875 0l-2.21875 -6.140625l-0.0625 0l-2.265625 6.140625z" fill-rule="nonzero"></path><path fill="#cfe2f3" d="m431.3701 69.874016l32.53543 0l0 53.385826l-32.53543 0z" fill-rule="nonzero"></path><path stroke="#3d85c6" stroke-width="2.0" stroke-linejoin="round" stroke-linecap="butt" d="m431.3701 69.874016l32.53543 0l0 53.385826l-32.53543 0z" fill-rule="nonzero"></path><path fill="#000000" d="m449.35446 100.00255l-5.65625 0l-1.28125 3.484375l-1.859375 0l5.21875 -13.515625l1.578125 0l5.125 13.515625l-1.859375 0l-1.265625 -3.484375zm-5.09375 -1.53125l4.546875 0l-2.21875 -6.140625l-0.0625 0l-2.265625 6.140625z" fill-rule="nonzero"></path><path fill="#cfe2f3" d="m463.90552 69.874016l32.53543 0l0 53.385826l-32.53543 0z" fill-rule="nonzero"></path><path stroke="#3d85c6" stroke-width="2.0" stroke-linejoin="round" stroke-linecap="butt" d="m463.90552 69.874016l32.53543 0l0 53.385826l-32.53543 0z" fill-rule="nonzero"></path><path fill="#000000" d="m481.8899 100.00255l-5.65625 0l-1.28125 3.484375l-1.859375 0l5.21875 -13.515625l1.578125 0l5.125 13.515625l-1.859375 0l-1.265625 -3.484375zm-5.09375 -1.53125l4.546875 0l-2.21875 -6.140625l-0.0625 0l-2.265625 6.140625z" fill-rule="nonzero"></path><path fill="#cfe2f3" d="m496.44095 69.874016l32.53543 0l0 53.385826l-32.53543 0z" fill-rule="nonzero"></path><path stroke="#3d85c6" stroke-width="2.0" stroke-linejoin="round" stroke-linecap="butt" d="m496.44095 69.874016l32.53543 0l0 53.385826l-32.53543 0z" fill-rule="nonzero"></path><path fill="#000000" d="m514.4253 100.00255l-5.6562195 0l-1.28125 3.484375l-1.859375 0l5.21875 -13.515625l1.5780945 0l5.125 13.515625l-1.859375 0l-1.265625 -3.484375zm-5.0937195 -1.53125l4.5468445 0l-2.2187195 -6.140625l-0.0625 0l-2.265625 6.140625z" fill-rule="nonzero"></path><path fill="#cfe2f3" d="m528.9764 69.874016l32.53546 0l0 53.385826l-32.53546 0z" fill-rule="nonzero"></path><path stroke="#3d85c6" stroke-width="2.0" stroke-linejoin="round" stroke-linecap="butt" d="m528.9764 69.874016l32.53546 0l0 53.385826l-32.53546 0z" fill-rule="nonzero"></path><path fill="#000000" d="m546.96075 100.00255l-5.65625 0l-1.28125 3.484375l-1.859375 0l5.21875 -13.515625l1.578125 0l5.125 13.515625l-1.859375 0l-1.265625 -3.484375zm-5.09375 -1.53125l4.546875 0l-2.21875 -6.140625l-0.0625 0l-2.265625 6.140625z" fill-rule="nonzero"></path><path fill="#cfe2f3" d="m561.51184 69.874016l32.5354 0l0 53.385826l-32.5354 0z" fill-rule="nonzero"></path><path stroke="#3d85c6" stroke-width="2.0" stroke-linejoin="round" stroke-linecap="butt" d="m561.51184 69.874016l32.5354 0l0 53.385826l-32.5354 0z" fill-rule="nonzero"></path><path fill="#000000" d="m579.4962 100.00255l-5.65625 0l-1.28125 3.484375l-1.859375 0l5.21875 -13.515625l1.578125 0l5.125 13.515625l-1.859375 0l-1.265625 -3.484375zm-5.09375 -1.53125l4.546875 0l-2.21875 -6.140625l-0.0625 0l-2.265625 6.140625z" fill-rule="nonzero"></path><path fill="#cfe2f3" d="m594.04724 69.874016l32.53546 0l0 53.385826l-32.53546 0z" fill-rule="nonzero"></path><path stroke="#3d85c6" stroke-width="2.0" stroke-linejoin="round" stroke-linecap="butt" d="m594.04724 69.874016l32.53546 0l0 53.385826l-32.53546 0z" fill-rule="nonzero"></path><path fill="#000000" d="m612.0316 100.00255l-5.65625 0l-1.28125 3.484375l-1.859375 0l5.21875 -13.515625l1.578125 0l5.125 13.515625l-1.859375 0l-1.265625 -3.484375zm-5.09375 -1.53125l4.546875 0l-2.21875 -6.140625l-0.0625 0l-2.265625 6.140625z" fill-rule="nonzero"></path><path fill="#cfe2f3" d="m626.5827 69.874016l32.5354 0l0 53.385826l-32.5354 0z" fill-rule="nonzero"></path><path stroke="#3d85c6" stroke-width="2.0" stroke-linejoin="round" stroke-linecap="butt" d="m626.5827 69.874016l32.5354 0l0 53.385826l-32.5354 0z" fill-rule="nonzero"></path><path fill="#000000" d="m644.5671 100.00255l-5.65625 0l-1.28125 3.484375l-1.859375 0l5.21875 -13.515625l1.578125 0l5.125 13.515625l-1.859375 0l-1.265625 -3.484375zm-5.09375 -1.53125l4.546875 0l-2.21875 -6.140625l-0.0625 0l-2.265625 6.140625z" fill-rule="nonzero"></path><path fill="#cfe2f3" d="m659.1181 69.874016l32.53546 0l0 53.385826l-32.53546 0z" fill-rule="nonzero"></path><path stroke="#3d85c6" stroke-width="2.0" stroke-linejoin="round" stroke-linecap="butt" d="m659.1181 69.874016l32.53546 0l0 53.385826l-32.53546 0z" fill-rule="nonzero"></path><path fill="#000000" d="m677.1025 100.00255l-5.65625 0l-1.28125 3.484375l-1.859375 0l5.21875 -13.515625l1.578125 0l5.125 13.515625l-1.859375 0l-1.265625 -3.484375zm-5.09375 -1.53125l4.546875 0l-2.21875 -6.140625l-0.0625 0l-2.265625 6.140625z" fill-rule="nonzero"></path><path fill="#cfe2f3" d="m724.18896 69.874016l32.53546 0l0 53.385826l-32.53546 0z" fill-rule="nonzero"></path><path stroke="#3d85c6" stroke-width="2.0" stroke-linejoin="round" stroke-linecap="butt" d="m724.18896 69.874016l32.53546 0l0 53.385826l-32.53546 0z" fill-rule="nonzero"></path><path fill="#000000" d="m742.17334 100.00255l-5.65625 0l-1.28125 3.484375l-1.859375 0l5.21875 -13.515625l1.578125 0l5.125 13.515625l-1.859375 0l-1.265625 -3.484375zm-5.09375 -1.53125l4.546875 0l-2.21875 -6.140625l-0.0625 0l-2.265625 6.140625z" fill-rule="nonzero"></path><path fill="#cfe2f3" d="m756.7244 69.874016l32.5354 0l0 53.385826l-32.5354 0z" fill-rule="nonzero"></path><path stroke="#3d85c6" stroke-width="2.0" stroke-linejoin="round" stroke-linecap="butt" d="m756.7244 69.874016l32.5354 0l0 53.385826l-32.5354 0z" fill-rule="nonzero"></path><path fill="#000000" d="m774.7088 100.00255l-5.65625 0l-1.28125 3.484375l-1.859375 0l5.21875 -13.515625l1.578125 0l5.125 13.515625l-1.859375 0l-1.265625 -3.484375zm-5.09375 -1.53125l4.546875 0l-2.21875 -6.140625l-0.0625 0l-2.265625 6.140625z" fill-rule="nonzero"></path><path fill="#cfe2f3" d="m789.2598 69.874016l32.53546 0l0 53.385826l-32.53546 0z" fill-rule="nonzero"></path><path stroke="#3d85c6" stroke-width="2.0" stroke-linejoin="round" stroke-linecap="butt" d="m789.2598 69.874016l32.53546 0l0 53.385826l-32.53546 0z" fill-rule="nonzero"></path><path fill="#000000" d="m807.2442 100.00255l-5.65625 0l-1.28125 3.484375l-1.859375 0l5.21875 -13.515625l1.578125 0l5.125 13.515625l-1.859375 0l-1.265625 -3.484375zm-5.09375 -1.53125l4.546875 0l-2.21875 -6.140625l-0.0625 0l-2.265625 6.140625z" fill-rule="nonzero"></path><path fill="#cfe2f3" d="m821.7953 69.874016l32.5354 0l0 53.385826l-32.5354 0z" fill-rule="nonzero"></path><path stroke="#3d85c6" stroke-width="2.0" stroke-linejoin="round" stroke-linecap="butt" d="m821.7953 69.874016l32.5354 0l0 53.385826l-32.5354 0z" fill-rule="nonzero"></path><path fill="#000000" d="m839.77966 100.00255l-5.65625 0l-1.28125 3.484375l-1.859375 0l5.21875 -13.515625l1.578125 0l5.125 13.515625l-1.859375 0l-1.265625 -3.484375zm-5.09375 -1.53125l4.546875 0l-2.21875 -6.140625l-0.0625 0l-2.265625 6.140625z" fill-rule="nonzero"></path><path fill="#cfe2f3" d="m854.3307 69.874016l32.53546 0l0 53.385826l-32.53546 0z" fill-rule="nonzero"></path><path stroke="#3d85c6" stroke-width="2.0" stroke-linejoin="round" stroke-linecap="butt" d="m854.3307 69.874016l32.53546 0l0 53.385826l-32.53546 0z" fill-rule="nonzero"></path><path fill="#000000" d="m872.31506 100.00255l-5.65625 0l-1.28125 3.484375l-1.859375 0l5.21875 -13.515625l1.578125 0l5.125 13.515625l-1.859375 0l-1.265625 -3.484375zm-5.09375 -1.53125l4.546875 0l-2.21875 -6.140625l-0.0625 0l-2.265625 6.140625z" fill-rule="nonzero"></path><path fill="#cfe2f3" d="m886.86615 69.874016l32.5354 0l0 53.385826l-32.5354 0z" fill-rule="nonzero"></path><path stroke="#3d85c6" stroke-width="2.0" stroke-linejoin="round" stroke-linecap="butt" d="m886.86615 69.874016l32.5354 0l0 53.385826l-32.5354 0z" fill-rule="nonzero"></path><path fill="#000000" d="m904.8505 100.00255l-5.65625 0l-1.28125 3.484375l-1.859375 0l5.21875 -13.515625l1.578125 0l5.125 13.515625l-1.859375 0l-1.265625 -3.484375zm-5.09375 -1.53125l4.546875 0l-2.21875 -6.140625l-0.0625 0l-2.265625 6.140625z" fill-rule="nonzero"></path><path fill="#cfe2f3" d="m919.40155 69.874016l32.53546 0l0 53.385826l-32.53546 0z" fill-rule="nonzero"></path><path stroke="#3d85c6" stroke-width="2.0" stroke-linejoin="round" stroke-linecap="butt" d="m919.40155 69.874016l32.53546 0l0 53.385826l-32.53546 0z" fill-rule="nonzero"></path><path fill="#000000" d="m937.3859 100.00255l-5.65625 0l-1.28125 3.484375l-1.859375 0l5.21875 -13.515625l1.578125 0l5.125 13.515625l-1.859375 0l-1.265625 -3.484375zm-5.09375 -1.53125l4.546875 0l-2.21875 -6.140625l-0.0625 0l-2.265625 6.140625z" fill-rule="nonzero"></path><path fill="#cfe2f3" d="m951.937 69.874016l32.5354 0l0 53.385826l-32.5354 0z" fill-rule="nonzero"></path><path stroke="#3d85c6" stroke-width="2.0" stroke-linejoin="round" stroke-linecap="butt" d="m951.937 69.874016l32.5354 0l0 53.385826l-32.5354 0z" fill-rule="nonzero"></path><path fill="#000000" d="m969.9214 100.00255l-5.65625 0l-1.28125 3.484375l-1.859375 0l5.21875 -13.515625l1.578125 0l5.125 13.515625l-1.859375 0l-1.265625 -3.484375zm-5.09375 -1.53125l4.546875 0l-2.21875 -6.140625l-0.0625 0l-2.265625 6.140625z" fill-rule="nonzero"></path><path fill="#cfe2f3" d="m984.4724 69.874016l32.53546 0l0 53.385826l-32.53546 0z" fill-rule="nonzero"></path><path stroke="#3d85c6" stroke-width="2.0" stroke-linejoin="round" stroke-linecap="butt" d="m984.4724 69.874016l32.53546 0l0 53.385826l-32.53546 0z" fill-rule="nonzero"></path><path fill="#000000" d="m1002.4568 100.00255l-5.65625 0l-1.28125 3.484375l-1.859375 0l5.21875 -13.515625l1.578125 0l5.125 13.515625l-1.859375 0l-1.265625 -3.484375zm-5.09375 -1.53125l4.546875 0l-2.21875 -6.140625l-0.0625 0l-2.265625 6.140625z" fill-rule="nonzero"></path><path fill="#cfe2f3" d="m1049.5433 69.874016l32.5354 0l0 53.385826l-32.5354 0z" fill-rule="nonzero"></path><path stroke="#3d85c6" stroke-width="2.0" stroke-linejoin="round" stroke-linecap="butt" d="m1049.5433 69.874016l32.5354 0l0 53.385826l-32.5354 0z" fill-rule="nonzero"></path><path fill="#000000" d="m1067.5277 100.00255l-5.65625 0l-1.28125 3.484375l-1.859375 0l5.21875 -13.515625l1.578125 0l5.125 13.515625l-1.859375 0l-1.265625 -3.484375zm-5.09375 -1.53125l4.546875 0l-2.21875 -6.140625l-0.0625 0l-2.265625 6.140625z" fill-rule="nonzero"></path><path fill="#cfe2f3" d="m1082.0787 69.874016l32.5354 0l0 53.385826l-32.5354 0z" fill-rule="nonzero"></path><path stroke="#3d85c6" stroke-width="2.0" stroke-linejoin="round" stroke-linecap="butt" d="m1082.0787 69.874016l32.5354 0l0 53.385826l-32.5354 0z" fill-rule="nonzero"></path><path fill="#000000" d="m1100.0631 100.00255l-5.65625 0l-1.28125 3.484375l-1.859375 0l5.21875 -13.515625l1.578125 0l5.125 13.515625l-1.859375 0l-1.265625 -3.484375zm-5.09375 -1.53125l4.546875 0l-2.21875 -6.140625l-0.0625 0l-2.265625 6.140625z" fill-rule="nonzero"></path><path fill="#cfe2f3" d="m1114.6141 69.874016l32.535522 0l0 53.385826l-32.535522 0z" fill-rule="nonzero"></path><path stroke="#3d85c6" stroke-width="2.0" stroke-linejoin="round" stroke-linecap="butt" d="m1114.6141 69.874016l32.535522 0l0 53.385826l-32.535522 0z" fill-rule="nonzero"></path><path fill="#000000" d="m1132.5985 100.00255l-5.65625 0l-1.28125 3.484375l-1.859375 0l5.21875 -13.515625l1.578125 0l5.125 13.515625l-1.859375 0l-1.265625 -3.484375zm-5.09375 -1.53125l4.546875 0l-2.21875 -6.140625l-0.0625 0l-2.265625 6.140625z" fill-rule="nonzero"></path><path fill="#cfe2f3" d="m1147.1497 69.874016l32.5354 0l0 53.385826l-32.5354 0z" fill-rule="nonzero"></path><path stroke="#3d85c6" stroke-width="2.0" stroke-linejoin="round" stroke-linecap="butt" d="m1147.1497 69.874016l32.5354 0l0 53.385826l-32.5354 0z" fill-rule="nonzero"></path><path fill="#000000" d="m1165.134 100.00255l-5.65625 0l-1.28125 3.484375l-1.859375 0l5.21875 -13.515625l1.578125 0l5.125 13.515625l-1.859375 0l-1.265625 -3.484375zm-5.09375 -1.53125l4.546875 0l-2.21875 -6.140625l-0.0625 0l-2.265625 6.140625z" fill-rule="nonzero"></path><path fill="#cfe2f3" d="m1179.685 69.874016l32.5354 0l0 53.385826l-32.5354 0z" fill-rule="nonzero"></path><path stroke="#3d85c6" stroke-width="2.0" stroke-linejoin="round" stroke-linecap="butt" d="m1179.685 69.874016l32.5354 0l0 53.385826l-32.5354 0z" fill-rule="nonzero"></path><path fill="#000000" d="m1197.6694 100.00255l-5.65625 0l-1.28125 3.484375l-1.859375 0l5.21875 -13.515625l1.578125 0l5.125 13.515625l-1.859375 0l-1.265625 -3.484375zm-5.09375 -1.53125l4.546875 0l-2.21875 -6.140625l-0.0625 0l-2.265625 6.140625z" fill-rule="nonzero"></path><path fill="#cfe2f3" d="m1212.2205 69.874016l32.5354 0l0 53.385826l-32.5354 0z" fill-rule="nonzero"></path><path stroke="#3d85c6" stroke-width="2.0" stroke-linejoin="round" stroke-linecap="butt" d="m1212.2205 69.874016l32.5354 0l0 53.385826l-32.5354 0z" fill-rule="nonzero"></path><path fill="#000000" d="m1230.2048 100.00255l-5.65625 0l-1.28125 3.484375l-1.859375 0l5.21875 -13.515625l1.578125 0l5.125 13.515625l-1.859375 0l-1.265625 -3.484375zm-5.09375 -1.53125l4.546875 0l-2.21875 -6.140625l-0.0625 0l-2.265625 6.140625z" fill-rule="nonzero"></path><path fill="#cfe2f3" d="m1244.7559 69.874016l32.535522 0l0 53.385826l-32.535522 0z" fill-rule="nonzero"></path><path stroke="#3d85c6" stroke-width="2.0" stroke-linejoin="round" stroke-linecap="butt" d="m1244.7559 69.874016l32.535522 0l0 53.385826l-32.535522 0z" fill-rule="nonzero"></path><path fill="#000000" d="m1262.7402 100.00255l-5.65625 0l-1.28125 3.484375l-1.859375 0l5.21875 -13.515625l1.578125 0l5.125 13.515625l-1.859375 0l-1.265625 -3.484375zm-5.09375 -1.53125l4.546875 0l-2.21875 -6.140625l-0.0625 0l-2.265625 6.140625z" fill-rule="nonzero"></path><path fill="#cfe2f3" d="m1277.2914 69.874016l32.5354 0l0 53.385826l-32.5354 0z" fill-rule="nonzero"></path><path stroke="#3d85c6" stroke-width="2.0" stroke-linejoin="round" stroke-linecap="butt" d="m1277.2914 69.874016l32.5354 0l0 53.385826l-32.5354 0z" fill-rule="nonzero"></path><path fill="#000000" d="m1295.2758 100.00255l-5.65625 0l-1.28125 3.484375l-1.859375 0l5.21875 -13.515625l1.578125 0l5.125 13.515625l-1.859375 0l-1.265625 -3.484375zm-5.09375 -1.53125l4.546875 0l-2.21875 -6.140625l-0.0625 0l-2.265625 6.140625z" fill-rule="nonzero"></path><path fill="#cfe2f3" d="m1309.8268 69.874016l32.5354 0l0 53.385826l-32.5354 0z" fill-rule="nonzero"></path><path stroke="#3d85c6" stroke-width="2.0" stroke-linejoin="round" stroke-linecap="butt" d="m1309.8268 69.874016l32.5354 0l0 53.385826l-32.5354 0z" fill-rule="nonzero"></path><path fill="#000000" d="m1327.8112 100.00255l-5.65625 0l-1.28125 3.484375l-1.859375 0l5.21875 -13.515625l1.578125 0l5.125 13.515625l-1.859375 0l-1.265625 -3.484375zm-5.09375 -1.53125l4.546875 0l-2.21875 -6.140625l-0.0625 0l-2.265625 6.140625z" fill-rule="nonzero"></path><path fill="#f4cccc" d="m626.584 294.69815l32.53546 0l0 53.385834l-32.53546 0z" fill-rule="nonzero"></path><path stroke="#cc0000" stroke-width="2.0" stroke-linejoin="round" stroke-linecap="butt" d="m626.584 294.69815l32.53546 0l0 53.385834l-32.53546 0z" fill-rule="nonzero"></path><path fill="#000000" d="m644.56836 324.8267l-5.65625 0l-1.28125 3.484375l-1.859375 0l5.21875 -13.515625l1.578125 0l5.125 13.515625l-1.859375 0l-1.265625 -3.484375zm-5.09375 -1.53125l4.546875 0l-2.21875 -6.140625l-0.0625 0l-2.265625 6.140625z" fill-rule="nonzero"></path><path fill="#f4cccc" d="m659.11945 294.69815l32.5354 0l0 53.385834l-32.5354 0z" fill-rule="nonzero"></path><path stroke="#cc0000" stroke-width="2.0" stroke-linejoin="round" stroke-linecap="butt" d="m659.11945 294.69815l32.5354 0l0 53.385834l-32.5354 0z" fill-rule="nonzero"></path><path fill="#000000" d="m677.1038 324.8267l-5.65625 0l-1.28125 3.484375l-1.859375 0l5.21875 -13.515625l1.578125 0l5.125 13.515625l-1.859375 0l-1.265625 -3.484375zm-5.09375 -1.53125l4.546875 0l-2.21875 -6.140625l-0.0625 0l-2.265625 6.140625z" fill-rule="nonzero"></path><path fill="#f4cccc" d="m691.65485 294.69815l32.53546 0l0 53.385834l-32.53546 0z" fill-rule="nonzero"></path><path stroke="#cc0000" stroke-width="2.0" stroke-linejoin="round" stroke-linecap="butt" d="m691.65485 294.69815l32.53546 0l0 53.385834l-32.53546 0z" fill-rule="nonzero"></path><path fill="#000000" d="m709.6392 324.8267l-5.65625 0l-1.28125 3.484375l-1.859375 0l5.21875 -13.515625l1.578125 0l5.125 13.515625l-1.859375 0l-1.265625 -3.484375zm-5.09375 -1.53125l4.546875 0l-2.21875 -6.140625l-0.0625 0l-2.265625 6.140625z" fill-rule="nonzero"></path><path fill="#f4cccc" d="m724.1903 294.69815l32.5354 0l0 53.385834l-32.5354 0z" fill-rule="nonzero"></path><path stroke="#cc0000" stroke-width="2.0" stroke-linejoin="round" stroke-linecap="butt" d="m724.1903 294.69815l32.5354 0l0 53.385834l-32.5354 0z" fill-rule="nonzero"></path><path fill="#000000" d="m742.1747 324.8267l-5.65625 0l-1.28125 3.484375l-1.859375 0l5.21875 -13.515625l1.578125 0l5.125 13.515625l-1.859375 0l-1.265625 -3.484375zm-5.09375 -1.53125l4.546875 0l-2.21875 -6.140625l-0.0625 0l-2.265625 6.140625z" fill-rule="nonzero"></path><path fill="#cfe2f3" d="m40.94488 69.874016l32.535435 0l0 53.385826l-32.535435 0z" fill-rule="nonzero"></path><path stroke="#3d85c6" stroke-width="2.0" stroke-linejoin="round" stroke-linecap="butt" d="m40.94488 69.874016l32.535435 0l0 53.385826l-32.535435 0z" fill-rule="nonzero"></path><path fill="#000000" d="m58.929256 100.00255l-5.65625 0l-1.28125 3.484375l-1.859375 0l5.21875 -13.515625l1.578125 0l5.125 13.515625l-1.859375 0l-1.265625 -3.484375zm-5.09375 -1.53125l4.546875 0l-2.21875 -6.140625l-0.0625 0l-2.265625 6.140625z" fill-rule="nonzero"></path><path fill="#cfe2f3" d="m366.29922 69.874016l32.53543 0l0 53.385826l-32.53543 0z" fill-rule="nonzero"></path><path stroke="#3d85c6" stroke-width="2.0" stroke-linejoin="round" stroke-linecap="butt" d="m366.29922 69.874016l32.53543 0l0 53.385826l-32.53543 0z" fill-rule="nonzero"></path><path fill="#000000" d="m384.2836 100.00255l-5.65625 0l-1.28125 3.484375l-1.859375 0l5.21875 -13.515625l1.578125 0l5.125 13.515625l-1.859375 0l-1.265625 -3.484375zm-5.09375 -1.53125l4.546875 0l-2.21875 -6.140625l-0.0625 0l-2.265625 6.140625z" fill-rule="nonzero"></path><path fill="#cfe2f3" d="m691.65356 69.874016l32.5354 0l0 53.385826l-32.5354 0z" fill-rule="nonzero"></path><path stroke="#3d85c6" stroke-width="2.0" stroke-linejoin="round" stroke-linecap="butt" d="m691.65356 69.874016l32.5354 0l0 53.385826l-32.5354 0z" fill-rule="nonzero"></path><path fill="#000000" d="m709.63794 100.00255l-5.65625 0l-1.28125 3.484375l-1.859375 0l5.21875 -13.515625l1.578125 0l5.125 13.515625l-1.859375 0l-1.265625 -3.484375zm-5.09375 -1.53125l4.546875 0l-2.21875 -6.140625l-0.0625 0l-2.265625 6.140625z" fill-rule="nonzero"></path><path fill="#cfe2f3" d="m1017.0079 69.874016l32.53546 0l0 53.385826l-32.53546 0z" fill-rule="nonzero"></path><path stroke="#3d85c6" stroke-width="2.0" stroke-linejoin="round" stroke-linecap="butt" d="m1017.0079 69.874016l32.53546 0l0 53.385826l-32.53546 0z" fill-rule="nonzero"></path><path fill="#000000" d="m1034.9923 100.00255l-5.65625 0l-1.28125 3.484375l-1.859375 0l5.21875 -13.515625l1.578125 0l5.125 13.515625l-1.859375 0l-1.265625 -3.484375zm-5.09375 -1.53125l4.546875 0l-2.21875 -6.140625l-0.0625 0l-2.265625 6.140625z" fill-rule="nonzero"></path><path fill="#000000" fill-opacity="0.0" d="m642.7572 240.11548l0.09448242 54.582672" fill-rule="nonzero"></path><path stroke="#000000" stroke-width="2.0" stroke-linejoin="round" stroke-linecap="butt" d="m642.7572 240.11548l0.07373047 42.582703" fill-rule="evenodd"></path><path fill="#000000" stroke="#000000" stroke-width="2.0" stroke-linecap="butt" d="m639.52747 282.7039l3.3191528 9.070465l3.2877808 -9.081879z" fill-rule="evenodd"></path><path fill="#000000" fill-opacity="0.0" d="m1179.685 130.39633l162.67712 0l0 40.661407l-162.67712 0z" fill-rule="nonzero"></path><path fill="#000000" d="m1193.2319 162.43633l-2.3125 0l0 -17.0625l2.3125 0l0 17.0625zm5.9726562 -12.6875l0.171875 1.890625q0.625 -1.0 1.578125 -1.5625q0.96875 -0.5625 2.1875 -0.5625q2.046875 0 3.171875 1.203125q1.125 1.203125 1.125 3.71875l0 8.0l-2.3125 0l0 -7.953125q0 -1.6875 -0.671875 -2.390625q-0.65625 -0.703125 -2.015625 -0.703125q-0.984375 0 -1.765625 0.484375q-0.765625 0.484375 -1.21875 1.3125l0 9.25l-2.3125 0l0 -12.6875l2.0625 0zm22.390625 6.828125q0 2.734375 -1.3125 4.421875q-1.3125 1.6875 -3.625 1.6875q-1.171875 0 -2.0625 -0.390625q-0.875 -0.40625 -1.5 -1.1875l0 6.203125l-2.3125 0l0 -17.5625l1.78125 0l0.359375 1.640625q0.625 -0.90625 1.546875 -1.390625q0.921875 -0.484375 2.15625 -0.484375q2.359375 0 3.65625 1.875q1.3125 1.875 1.3125 4.9375l0 0.25zm-2.3125 -0.25q0 -2.15625 -0.859375 -3.546875q-0.84375 -1.390625 -2.484375 -1.390625q-1.0 0 -1.703125 0.453125q-0.703125 0.453125 -1.140625 1.234375l0 6.140625q0.4375 0.78125 1.140625 1.21875q0.703125 0.4375 1.71875 0.4375q1.640625 0 2.484375 -1.203125q0.84375 -1.203125 0.84375 -3.09375l0 -0.25zm13.203125 4.234375q-0.609375 1.015625 -1.546875 1.578125q-0.9375 0.546875 -2.15625 0.546875q-2.078125 0 -3.25 -1.328125q-1.15625 -1.328125 -1.15625 -4.125l0 -7.484375l2.3125 0l0 7.5q0 2.03125 0.59375 2.796875q0.609375 0.765625 1.875 0.765625q1.21875 0 2.015625 -0.5q0.8125 -0.5 1.21875 -1.421875l0 -9.140625l2.3125 0l0 12.6875l-2.078125 0l-0.140625 -1.875zm8.625 -13.859375l0 3.046875l2.40625 0l0 1.71875l-2.40625 0l0 7.703125q0 0.890625 0.375 1.25q0.375 0.359375 0.984375 0.359375q0.1875 0 0.421875 -0.046875q0.25 -0.046875 0.4375 -0.109375l0.3125 1.578125q-0.265625 0.203125 -0.765625 0.34375q-0.5 0.140625 -1.0 0.140625q-1.40625 0 -2.234375 -0.84375q-0.828125 -0.859375 -0.828125 -2.671875l0 -7.703125l-2.015625 0l0 -1.71875l2.015625 0l0 -3.046875l2.296875 0zm20.949219 11.4375q0 -1.171875 -0.890625 -1.96875q-0.875 -0.796875 -3.109375 -1.328125q-2.703125 -0.640625 -4.21875 -1.890625q-1.515625 -1.265625 -1.515625 -3.15625q0 -2.0 1.625 -3.328125q1.640625 -1.34375 4.234375 -1.34375q2.8125 0 4.46875 1.546875q1.65625 1.53125 1.59375 3.546875l-0.015625 0.078125l-2.203125 0q0 -1.5 -1.0 -2.421875q-0.984375 -0.9375 -2.84375 -0.9375q-1.71875 0 -2.640625 0.78125q-0.921875 0.78125 -0.921875 2.03125q0 1.125 1.0 1.875q1.0 0.734375 3.234375 1.296875q2.703125 0.671875 4.109375 1.96875q1.40625 1.296875 1.40625 3.21875q0 2.0625 -1.6875 3.328125q-1.6875 1.25 -4.40625 1.25q-2.5625 0 -4.53125 -1.375q-1.953125 -1.390625 -1.890625 -3.71875l0.015625 -0.0625l2.203125 0q0 1.640625 1.203125 2.5q1.21875 0.84375 3.0 0.84375q1.734375 0 2.75 -0.734375q1.03125 -0.734375 1.03125 -2.0zm8.277344 -11.4375l0 3.046875l2.40625 0l0 1.71875l-2.40625 0l0 7.703125q0 0.890625 0.375 1.25q0.375 0.359375 0.984375 0.359375q0.1875 0 0.421875 -0.046875q0.25 -0.046875 0.4375 -0.109375l0.3125 1.578125q-0.265625 0.203125 -0.765625 0.34375q-0.5 0.140625 -1.0 0.140625q-1.40625 0 -2.234375 -0.84375q-0.828125 -0.859375 -0.828125 -2.671875l0 -7.703125l-2.015625 0l0 -1.71875l2.015625 0l0 -3.046875l2.296875 0zm11.25 5.09375l-1.171875 -0.078125q-0.921875 0 -1.546875 0.4375q-0.625 0.4375 -0.96875 1.21875l0 9.0625l-2.3125 0l0 -12.6875l2.0625 0l0.234375 1.859375q0.53125 -0.984375 1.3125 -1.53125q0.796875 -0.5625 1.828125 -0.5625q0.265625 0 0.5 0.046875q0.234375 0.046875 0.390625 0.09375l-0.328125 2.140625zm4.7265625 10.640625l-2.3125 0l0 -12.6875l2.3125 0l0 12.6875zm0 -15.921875l-2.3125 0l0 -2.359375l2.3125 0l0 2.359375zm5.609375 3.234375l0.171875 1.890625q0.625 -1.0 1.578125 -1.5625q0.96875 -0.5625 2.1875 -0.5625q2.046875 0 3.171875 1.203125q1.125 1.203125 1.125 3.71875l0 8.0l-2.3125 0l0 -7.953125q0 -1.6875 -0.671875 -2.390625q-0.65625 -0.703125 -2.015625 -0.703125q-0.984375 0 -1.765625 0.484375q-0.765625 0.484375 -1.21875 1.3125l0 9.25l-2.3125 0l0 -12.6875l2.0625 0zm11.078125 6.578125q0 -3.0625 1.328125 -4.9375q1.34375 -1.875 3.703125 -1.875q1.203125 0 2.109375 0.5q0.921875 0.484375 1.53125 1.390625l0.28125 -1.65625l1.84375 0l0 12.765625q0 2.4375 -1.421875 3.734375q-1.421875 1.3125 -4.09375 1.3125q-0.90625 0 -1.96875 -0.25q-1.0625 -0.25 -1.875 -0.6875l0.59375 -1.796875q0.625 0.359375 1.5 0.5625q0.875 0.21875 1.734375 0.21875q1.6875 0 2.453125 -0.765625q0.765625 -0.765625 0.765625 -2.328125l0 -1.4375q-0.625 0.796875 -1.5 1.203125q-0.859375 0.40625 -1.984375 0.40625q-2.328125 0 -3.671875 -1.6875q-1.328125 -1.6875 -1.328125 -4.421875l0 -0.25zm2.3125 0.25q0 1.90625 0.796875 3.078125q0.8125 1.15625 2.46875 1.15625q1.046875 0 1.75 -0.46875q0.703125 -0.484375 1.15625 -1.359375l0 -5.828125q-0.4375 -0.8125 -1.15625 -1.28125q-0.71875 -0.484375 -1.71875 -0.484375q-1.65625 0 -2.484375 1.390625q-0.8125 1.375 -0.8125 3.546875l0 0.25z" fill-rule="nonzero"></path><path fill="#000000" fill-opacity="0.0" d="m768.0341 301.06036l216.44098 0l0 40.661407l-216.44098 0z" fill-rule="nonzero"></path><path fill="#000000" d="m781.456 326.25662l0 6.84375l-2.3125 0l0 -17.0625l6.53125 0q2.734375 0 4.234375 1.40625q1.515625 1.40625 1.515625 3.703125q0 2.328125 -1.515625 3.71875q-1.5 1.390625 -4.234375 1.390625l-4.21875 0zm0 -1.8125l4.21875 0q1.734375 0 2.578125 -0.921875q0.859375 -0.9375 0.859375 -2.359375q0 -1.40625 -0.859375 -2.359375q-0.859375 -0.953125 -2.578125 -0.953125l-4.21875 0l0 6.59375zm18.625 -1.984375l-1.171875 -0.078125q-0.921875 0 -1.546875 0.4375q-0.625 0.4375 -0.96875 1.21875l0 9.0625l-2.3125 0l0 -12.6875l2.0625 0l0.234375 1.859375q0.53125 -0.984375 1.3125 -1.53125q0.796875 -0.5625 1.828125 -0.5625q0.265625 0 0.5 0.046875q0.234375 0.046875 0.390625 0.09375l-0.328125 2.140625zm1.6953125 4.1875q0 -2.8125 1.515625 -4.640625q1.53125 -1.828125 4.140625 -1.828125q2.640625 0 4.171875 1.828125q1.53125 1.8125 1.53125 4.640625l0 0.25q0 2.84375 -1.53125 4.65625q-1.515625 1.796875 -4.140625 1.796875q-2.625 0 -4.15625 -1.8125q-1.53125 -1.8125 -1.53125 -4.640625l0 -0.25zm2.3125 0.25q0 2.015625 0.84375 3.328125q0.84375 1.3125 2.53125 1.3125q1.640625 0 2.5 -1.3125q0.859375 -1.3125 0.859375 -3.328125l0 -0.25q0 -2.0 -0.859375 -3.3125q-0.859375 -1.328125 -2.53125 -1.328125q-1.65625 0 -2.5 1.328125q-0.84375 1.3125 -0.84375 3.3125l0 0.25zm11.359375 0.09375q0 -3.0625 1.328125 -4.9375q1.34375 -1.875 3.703125 -1.875q1.203125 0 2.109375 0.5q0.921875 0.484375 1.53125 1.390625l0.28125 -1.65625l1.84375 0l0 12.765625q0 2.4375 -1.421875 3.734375q-1.421875 1.3125 -4.09375 1.3125q-0.90625 0 -1.96875 -0.25q-1.0625 -0.25 -1.875 -0.6875l0.59375 -1.796875q0.625 0.359375 1.5 0.5625q0.875 0.21875 1.734375 0.21875q1.6875 0 2.453125 -0.765625q0.765625 -0.765625 0.765625 -2.328125l0 -1.4375q-0.625 0.796875 -1.5 1.203125q-0.859375 0.40625 -1.984375 0.40625q-2.328125 0 -3.671875 -1.6875q-1.328125 -1.6875 -1.328125 -4.421875l0 -0.25zm2.3125 0.25q0 1.90625 0.796875 3.078125q0.8125 1.15625 2.46875 1.15625q1.046875 0 1.75 -0.46875q0.703125 -0.484375 1.15625 -1.359375l0 -5.828125q-0.4375 -0.8125 -1.15625 -1.28125q-0.71875 -0.484375 -1.71875 -0.484375q-1.65625 0 -2.484375 1.390625q-0.8125 1.375 -0.8125 3.546875l0 0.25zm17.828125 -4.78125l-1.171875 -0.078125q-0.921875 0 -1.546875 0.4375q-0.625 0.4375 -0.96875 1.21875l0 9.0625l-2.3125 0l0 -12.6875l2.0625 0l0.234375 1.859375q0.53125 -0.984375 1.3125 -1.53125q0.796875 -0.5625 1.828125 -0.5625q0.265625 0 0.5 0.046875q0.234375 0.046875 0.390625 0.09375l-0.328125 2.140625zm10.0234375 10.640625q-0.109375 -0.578125 -0.1875 -1.015625q-0.0625 -0.4375 -0.0625 -0.890625q-0.65625 0.921875 -1.6875 1.546875q-1.03125 0.609375 -2.234375 0.609375q-1.984375 0 -3.015625 -1.015625q-1.03125 -1.015625 -1.03125 -2.796875q0 -1.8125 1.46875 -2.84375q1.46875 -1.03125 3.984375 -1.03125l2.515625 0l0 -1.25q0 -1.109375 -0.6875 -1.75q-0.671875 -0.65625 -1.921875 -0.65625q-1.109375 0 -1.8125 0.5625q-0.6875 0.5625 -0.6875 1.359375l-2.203125 0l-0.03125 -0.0625q-0.0625 -1.390625 1.3125 -2.53125q1.375 -1.15625 3.546875 -1.15625q2.15625 0 3.46875 1.109375q1.3125 1.09375 1.3125 3.15625l0 6.09375q0 0.6875 0.0625 1.328125q0.078125 0.625 0.265625 1.234375l-2.375 0zm-3.828125 -1.6875q1.25 0 2.25 -0.640625q1.015625 -0.65625 1.328125 -1.484375l0 -2.0625l-2.59375 0q-1.390625 0 -2.234375 0.703125q-0.84375 0.703125 -0.84375 1.65625q0 0.84375 0.53125 1.34375q0.53125 0.484375 1.5625 0.484375zm11.2890625 -11.0l0.171875 1.671875q0.625 -0.90625 1.578125 -1.40625q0.953125 -0.5 2.21875 -0.5q1.265625 0 2.171875 0.59375q0.90625 0.578125 1.359375 1.75q0.609375 -1.078125 1.59375 -1.703125q0.984375 -0.640625 2.296875 -0.640625q1.921875 0 3.046875 1.34375q1.125 1.328125 1.125 4.0l0 7.578125l-2.296875 0l0 -7.609375q0 -1.875 -0.65625 -2.65625q-0.640625 -0.78125 -1.921875 -0.78125q-1.171875 0 -1.90625 0.828125q-0.734375 0.8125 -0.859375 2.078125l0 0.09375l0 8.046875l-2.328125 0l0 -7.609375q0 -1.78125 -0.671875 -2.609375q-0.65625 -0.828125 -1.890625 -0.828125q-1.0625 0 -1.75 0.4375q-0.671875 0.4375 -1.03125 1.21875l0 9.390625l-2.3125 0l0 -12.6875l2.0625 0zm37.378906 7.21875l0.015625 0.078125q0.046875 2.40625 -1.6875 4.03125q-1.734375 1.609375 -4.578125 1.609375q-2.890625 0 -4.71875 -2.046875q-1.8125 -2.0625 -1.8125 -5.21875l0 -3.03125q0 -3.15625 1.8125 -5.203125q1.828125 -2.0625 4.71875 -2.0625q2.890625 0 4.59375 1.546875q1.71875 1.53125 1.671875 4.078125l-0.015625 0.078125l-2.21875 0q0 -1.796875 -1.0625 -2.84375q-1.046875 -1.046875 -2.96875 -1.046875q-1.9375 0 -3.09375 1.5625q-1.140625 1.5625 -1.140625 3.875l0 3.046875q0 2.34375 1.140625 3.90625q1.15625 1.546875 3.09375 1.546875q1.921875 0 2.96875 -1.03125q1.0625 -1.046875 1.0625 -2.875l2.21875 0zm2.1679688 -0.984375q0 -2.8125 1.515625 -4.640625q1.53125 -1.828125 4.140625 -1.828125q2.640625 0 4.171875 1.828125q1.53125 1.8125 1.53125 4.640625l0 0.25q0 2.84375 -1.53125 4.65625q-1.515625 1.796875 -4.140625 1.796875q-2.625 0 -4.15625 -1.8125q-1.53125 -1.8125 -1.53125 -4.640625l0 -0.25zm2.3125 0.25q0 2.015625 0.84375 3.328125q0.84375 1.3125 2.53125 1.3125q1.640625 0 2.5 -1.3125q0.859375 -1.3125 0.859375 -3.328125l0 -0.25q0 -2.0 -0.859375 -3.3125q-0.859375 -1.328125 -2.53125 -1.328125q-1.65625 0 -2.5 1.328125q-0.84375 1.3125 -0.84375 3.3125l0 0.25zm19.921875 4.328125q-0.609375 1.015625 -1.546875 1.578125q-0.9375 0.546875 -2.15625 0.546875q-2.078125 0 -3.25 -1.328125q-1.15625 -1.328125 -1.15625 -4.125l0 -7.484375l2.3125 0l0 7.5q0 2.03125 0.59375 2.796875q0.609375 0.765625 1.875 0.765625q1.21875 0 2.015625 -0.5q0.8125 -0.5 1.21875 -1.421875l0 -9.140625l2.3125 0l0 12.6875l-2.078125 0l-0.140625 -1.875zm7.640625 -10.8125l0.171875 1.890625q0.625 -1.0 1.578125 -1.5625q0.96875 -0.5625 2.1875 -0.5625q2.046875 0 3.171875 1.203125q1.125 1.203125 1.125 3.71875l0 8.0l-2.3125 0l0 -7.953125q0 -1.6875 -0.671875 -2.390625q-0.65625 -0.703125 -2.015625 -0.703125q-0.984375 0 -1.765625 0.484375q-0.765625 0.484375 -1.21875 1.3125l0 9.25l-2.3125 0l0 -12.6875l2.0625 0zm14.625 -3.046875l0 3.046875l2.40625 0l0 1.71875l-2.40625 0l0 7.703125q0 0.890625 0.375 1.25q0.375 0.359375 0.984375 0.359375q0.1875 0 0.421875 -0.046875q0.25 -0.046875 0.4375 -0.109375l0.3125 1.578125q-0.265625 0.203125 -0.765625 0.34375q-0.5 0.140625 -1.0 0.140625q-1.40625 0 -2.234375 -0.84375q-0.828125 -0.859375 -0.828125 -2.671875l0 -7.703125l-2.015625 0l0 -1.71875l2.015625 0l0 -3.046875l2.296875 0zm10.515625 15.984375q-2.640625 0 -4.21875 -1.765625q-1.5625 -1.765625 -1.5625 -4.578125l0 -0.515625q0 -2.703125 1.609375 -4.5q1.625 -1.8125 3.828125 -1.8125q2.5625 0 3.875 1.546875q1.3125 1.546875 1.3125 4.125l0 1.453125l-8.234375 0l-0.03125 0.046875q0.03125 1.828125 0.921875 3.015625q0.890625 1.171875 2.5 1.171875q1.171875 0 2.046875 -0.328125q0.890625 -0.34375 1.546875 -0.921875l0.890625 1.5q-0.671875 0.671875 -1.796875 1.125q-1.109375 0.4375 -2.6875 0.4375zm-0.34375 -11.34375q-1.171875 0 -2.0 0.984375q-0.8125 0.96875 -1.0 2.4375l0.03125 0.0625l5.84375 0l0 -0.296875q0 -1.359375 -0.734375 -2.265625q-0.71875 -0.921875 -2.140625 -0.921875zm13.769531 0.453125l-1.171875 -0.078125q-0.921875 0 -1.546875 0.4375q-0.625 0.4375 -0.96875 1.21875l0 9.0625l-2.3125 0l0 -12.6875l2.0625 0l0.234375 1.859375q0.53125 -0.984375 1.3125 -1.53125q0.796875 -0.5625 1.828125 -0.5625q0.265625 0 0.5 0.046875q0.234375 0.046875 0.390625 0.09375l-0.328125 2.140625z" fill-rule="nonzero"></path><path fill="#000000" fill-opacity="0.0" d="m676.25195 240.11285l0.09448242 54.582672" fill-rule="nonzero"></path><path stroke="#000000" stroke-width="2.0" stroke-linejoin="round" stroke-linecap="butt" d="m676.25195 240.11285l0.07373047 42.582703" fill-rule="evenodd"></path><path fill="#000000" stroke="#000000" stroke-width="2.0" stroke-linecap="butt" d="m673.0222 282.70126l3.3191528 9.070465l3.2877808 -9.081879z" fill-rule="evenodd"></path><path fill="#000000" fill-opacity="0.0" d="m708.81104 240.11285l0.09448242 54.582672" fill-rule="nonzero"></path><path stroke="#000000" stroke-width="2.0" stroke-linejoin="round" stroke-linecap="butt" d="m708.81104 240.11285l0.07373047 42.582703" fill-rule="evenodd"></path><path fill="#000000" stroke="#000000" stroke-width="2.0" stroke-linecap="butt" d="m705.5813 282.70126l3.3191528 9.070465l3.2877197 -9.081879z" fill-rule="evenodd"></path><path fill="#000000" fill-opacity="0.0" d="m740.4094 240.11285l0.09454346 54.582672" fill-rule="nonzero"></path><path stroke="#000000" stroke-width="2.0" stroke-linejoin="round" stroke-linecap="butt" d="m740.4094 240.11285l0.073791504 42.582703" fill-rule="evenodd"></path><path fill="#000000" stroke="#000000" stroke-width="2.0" stroke-linecap="butt" d="m737.1797 282.70126l3.3192139 9.070465l3.2877197 -9.081879z" fill-rule="evenodd"></path><path fill="#000000" fill-opacity="0.0" d="m628.8688 203.51312l27.968506 0l0 36.59842l-27.968506 0z" fill-rule="nonzero"></path><path fill="#000000" d="m640.8688 226.58937q0.015625 -1.296875 0.390625 -1.890625q0.375 -0.609375 1.5 -1.46875q0.65625 -0.546875 1.046875 -1.15625q0.40625 -0.625 0.40625 -1.40625q0 -0.84375 -0.453125 -1.328125q-0.453125 -0.484375 -1.28125 -0.484375q-0.6875 0 -1.171875 0.40625q-0.484375 0.40625 -0.484375 1.203125l-2.640625 0l-0.015625 -0.0625q-0.03125 -1.78125 1.171875 -2.71875q1.203125 -0.953125 3.140625 -0.953125q2.078125 0 3.25 1.0625q1.1875 1.046875 1.1875 2.859375q0 1.171875 -0.703125 2.171875q-0.6875 1.0 -1.71875 1.6875q-0.5625 0.421875 -0.75 0.875q-0.171875 0.4375 -0.171875 1.203125l-2.703125 0zm2.71875 3.84375l-2.71875 0l0 -2.3125l2.71875 0l0 2.3125z" fill-rule="nonzero"></path><path fill="#000000" fill-opacity="0.0" d="m661.8478 203.51312l27.968506 0l0 36.59842l-27.968506 0z" fill-rule="nonzero"></path><path fill="#000000" d="m673.8478 226.58937q0.015625 -1.296875 0.390625 -1.890625q0.375 -0.609375 1.5 -1.46875q0.65625 -0.546875 1.046875 -1.15625q0.40625 -0.625 0.40625 -1.40625q0 -0.84375 -0.453125 -1.328125q-0.453125 -0.484375 -1.28125 -0.484375q-0.6875 0 -1.171875 0.40625q-0.484375 0.40625 -0.484375 1.203125l-2.640625 0l-0.015625 -0.0625q-0.03125 -1.78125 1.171875 -2.71875q1.203125 -0.953125 3.140625 -0.953125q2.078125 0 3.25 1.0625q1.1875 1.046875 1.1875 2.859375q0 1.171875 -0.703125 2.171875q-0.6875 1.0 -1.71875 1.6875q-0.5625 0.421875 -0.75 0.875q-0.171875 0.4375 -0.171875 1.203125l-2.703125 0zm2.71875 3.84375l-2.71875 0l0 -2.3125l2.71875 0l0 2.3125z" fill-rule="nonzero"></path><path fill="#000000" fill-opacity="0.0" d="m694.3937 203.51312l27.968506 0l0 36.59842l-27.968506 0z" fill-rule="nonzero"></path><path fill="#000000" d="m706.3937 226.58937q0.015625 -1.296875 0.390625 -1.890625q0.375 -0.609375 1.5 -1.46875q0.65625 -0.546875 1.046875 -1.15625q0.40625 -0.625 0.40625 -1.40625q0 -0.84375 -0.453125 -1.328125q-0.453125 -0.484375 -1.28125 -0.484375q-0.6875 0 -1.171875 0.40625q-0.484375 0.40625 -0.484375 1.203125l-2.640625 0l-0.015625 -0.0625q-0.03125 -1.78125 1.171875 -2.71875q1.203125 -0.953125 3.140625 -0.953125q2.078125 0 3.25 1.0625q1.1875 1.046875 1.1875 2.859375q0 1.171875 -0.703125 2.171875q-0.6875 1.0 -1.71875 1.6875q-0.5625 0.421875 -0.75 0.875q-0.171875 0.4375 -0.171875 1.203125l-2.703125 0zm2.71875 3.84375l-2.71875 0l0 -2.3125l2.71875 0l0 2.3125z" fill-rule="nonzero"></path><path fill="#000000" fill-opacity="0.0" d="m728.7559 203.51312l27.968506 0l0 36.59842l-27.968506 0z" fill-rule="nonzero"></path><path fill="#000000" d="m740.7559 226.58937q0.015625 -1.296875 0.390625 -1.890625q0.375 -0.609375 1.5 -1.46875q0.65625 -0.546875 1.046875 -1.15625q0.40625 -0.625 0.40625 -1.40625q0 -0.84375 -0.453125 -1.328125q-0.453125 -0.484375 -1.28125 -0.484375q-0.6875 0 -1.171875 0.40625q-0.484375 0.40625 -0.484375 1.203125l-2.640625 0l-0.015625 -0.0625q-0.03125 -1.78125 1.171875 -2.71875q1.203125 -0.953125 3.140625 -0.953125q2.078125 0 3.25 1.0625q1.1875 1.046875 1.1875 2.859375q0 1.171875 -0.703125 2.171875q-0.6875 1.0 -1.71875 1.6875q-0.5625 0.421875 -0.75 0.875q-0.171875 0.4375 -0.171875 1.203125l-2.703125 0zm2.71875 3.84375l-2.71875 0l0 -2.3125l2.71875 0l0 2.3125z" fill-rule="nonzero"></path></g></svg>

